<svg xmlns="http://www.w3.org/2000/svg" viewBox="0 0 512 512">
  <defs>
    <linearGradient id="bg" x1="0" y1="0" x2="1" y2="1">
      <stop offset="0%" stop-color="#3b82f6"/>
      <stop offset="100%" stop-color="#0b3d91"/>
    </linearGradient>
  </defs>
  <rect width="512" height="512" rx="96" fill="url(#bg)"/>
  <!-- Tower -->
  <g stroke="white" stroke-width="14" fill="none" stroke-linecap="round" stroke-linejoin="round">
    <path d="M256 110 L186 412 M256 110 L326 412"/>
    <path d="M210 250 L302 250 M195 320 L317 320 M180 390 L332 390"/>
    <!-- Antenna -->
    <path d="M256 60 L256 110"/>
    <!-- Signal waves -->
    <path d="M196 100 Q256 60 316 100" stroke-width="10"/>
    <path d="M166 130 Q256 50 346 130" stroke-width="8" opacity=".7"/>
  </g>
  <!-- Chart bars below -->
  <g fill="white" opacity=".9">
    <rect x="160" y="420" width="32" height="40" rx="4"/>
    <rect x="208" y="400" width="32" height="60" rx="4"/>
    <rect x="256" y="380" width="32" height="80" rx="4"/>
    <rect x="304" y="410" width="32" height="50" rx="4"/>
  </g>
</svg>
